<svg width="98" height="103" viewBox="0 0 98 103" fill="none" xmlns="http://www.w3.org/2000/svg">
<path d="M15.0885 23.4001C7.58155 31.5863 3 42.4987 3 54.4814C3 79.8863 23.5949 100.481 49 100.481C74.4049 100.481 95 79.8863 95 54.4814C95 43.9759 91.4786 34.293 85.5513 26.5488" stroke="white" stroke-width="5"/>
<path d="M19.1625 6.49131C9.21824 13.2052 13.195 21.6589 13.195 21.6589L16.6761 25.3886C16.6761 25.3886 22.2276 30.5601 26.8702 30.3614C32.537 30.1189 35.8436 26.4962 38.8053 21.6589C42.0396 16.3762 44.0301 9.25086 39.3026 5.24871C36.0702 2.51225 23.7387 3.40176 19.1625 6.49131Z" fill="white"/>
<path d="M72.6218 29.8378C78.5894 33.3189 84.5575 29.1189 84.5575 29.1189L88.0385 25.6378C88.0385 25.6378 89.7786 18.7638 86.0489 15.1676C79.0862 8.45405 71.8759 4.72432 65.1629 0.772945C64.0131 -0.12121 62.3158 -0.38564 61.4331 0.772945C60.5907 1.87884 61.0154 3.49313 62.1791 4.25403C68.6435 8.48106 72.1245 10.9675 76.3521 13.9513C77.1497 14.514 77.1855 15.6566 76.6007 16.4378C75.9582 17.2964 74.7518 17.2906 73.8656 16.6865C68.3948 12.9567 67.4002 11.4648 60.6872 6.98917C59.5563 6.23501 58.0421 5.91709 57.2061 6.98917C56.487 7.91125 56.5447 9.23894 57.4548 9.97295C65.1629 16.1892 68.8921 17.4324 72.3737 20.4162C73.0376 20.9849 72.9496 21.9967 72.3737 22.654C71.667 23.4607 70.5521 22.9674 69.6386 22.4054C66.4056 20.4162 61.4331 16.6865 55.9629 12.9567C54.92 12.2456 53.6027 12.0443 52.7304 12.9567C51.7816 13.9493 52.1531 15.5833 53.2277 16.4378C62.9245 24.1459 63.6705 24.1189 72.6218 29.8378Z" fill="white"/>
<path d="M28.2784 73.1301C27.1018 73.1301 26.1967 72.8133 25.5631 72.1798C24.9296 71.5462 24.6128 70.6411 24.6128 69.4645V44.8914C24.6128 43.7148 24.9296 42.8097 25.5631 42.1762C26.1967 41.5426 27.1018 41.2258 28.2784 41.2258H44.072C44.9771 41.2258 45.6559 41.4672 46.1085 41.9499C46.5912 42.4024 46.8325 43.0662 46.8325 43.9411C46.8325 44.8462 46.5912 45.54 46.1085 46.0228C45.6559 46.4753 44.9771 46.7016 44.072 46.7016H31.3104V54.1686H43.0312C43.9665 54.1686 44.6603 54.4098 45.1129 54.8927C45.5956 55.3452 45.8369 56.0241 45.8369 56.9291C45.8369 57.8342 45.5956 58.5279 45.1129 59.0108C44.6603 59.4634 43.9665 59.6896 43.0312 59.6896H31.3104V67.6544H44.072C44.9771 67.6544 45.6559 67.8955 46.1085 68.3784C46.5912 68.831 46.8325 69.4943 46.8325 70.3696C46.8325 71.2747 46.5912 71.9684 46.1085 72.4513C45.6559 72.9038 44.9771 73.1301 44.072 73.1301H28.2784ZM55.6785 73.1301C54.5019 73.1301 53.5968 72.8133 52.9632 72.1798C52.3297 71.5462 52.0129 70.6411 52.0129 69.4645V44.8914C52.0129 43.7148 52.3297 42.8097 52.9632 42.1762C53.5968 41.5426 54.5019 41.2258 55.6785 41.2258H71.4721C72.3772 41.2258 73.056 41.4672 73.5086 41.9499C73.9909 42.4024 74.2326 43.0662 74.2326 43.9411C74.2326 44.8462 73.9909 45.54 73.5086 46.0228C73.056 46.4753 72.3772 46.7016 71.4721 46.7016H58.7105V54.1686H70.4313C71.3662 54.1686 72.0604 54.4098 72.513 54.8927C72.9953 55.3452 73.237 56.0241 73.237 56.9291C73.237 57.8342 72.9953 58.5279 72.513 59.0108C72.0604 59.4634 71.3662 59.6896 70.4313 59.6896H58.7105V67.6544H71.4721C72.3772 67.6544 73.056 67.8955 73.5086 68.3784C73.9909 68.831 74.2326 69.4943 74.2326 70.3696C74.2326 71.2747 73.9909 71.9684 73.5086 72.4513C73.056 72.9038 72.3772 73.1301 71.4721 73.1301H55.6785Z" fill="white"/>
</svg>
