<svg width="115" height="103" viewBox="0 0 115 103" fill="none" xmlns="http://www.w3.org/2000/svg">
<path d="M87.5927 47.1852C81.8854 57.0235 63.5927 63.6852 63.5927 63.6852C63.5927 63.6852 61.2421 60.6386 59.0928 59.6853C55.875 58.2581 53.2078 58.5458 50.0928 60.1853C40.5927 65.1853 28.5928 73.1853 28.5928 73.1853C28.5928 73.1853 24.8523 75.1853 26.5928 77.1853C27.6262 78.3728 30.5928 76.6853 30.5928 76.6853L51.0928 64.1853C51.0928 64.1853 53.0928 63.1853 53.5928 64.6853C54.124 66.2788 52.0928 67.1853 52.0928 67.1853L32.5928 78.6853C32.5928 78.6853 28.5928 80.6853 30.0928 82.6853C31.0373 83.9447 34.5928 81.6853 34.5928 81.6853L54.0928 69.6853C54.0928 69.6853 55.9146 68.9986 56.5928 70.1853C57.2914 71.4078 55.5928 72.6853 55.5928 72.6853L36.0928 84.1853C36.0928 84.1853 32.5928 85.7322 33.5928 87.6853C34.5928 89.6384 38.0928 87.1853 38.0928 87.1853L57.0928 75.6853C57.0928 75.6853 59.0928 74.1853 60.0928 76.1853C60.7225 77.4447 58.5928 78.6853 58.5928 78.6853L39.5928 89.6853C39.5928 89.6853 37.1264 91.3195 37.5928 93.1852C38.0928 95.1853 42.0928 92.6852 42.0928 92.6852C42.0928 92.6852 49.0928 89.1853 57.0928 84.1853C60.0222 82.3544 64.0928 80.1853 66.5927 76.6852C68.6387 73.8207 66.0927 67.6852 66.0927 67.6852C66.0927 67.6852 76.6158 62.4761 83.5928 59.6853C88.5928 57.6853 95.6514 55.5272 97.5928 57.6853C99.7186 60.0484 99.7733 65.734 98.5928 68.6853C94.5928 78.6853 88.5 85 85 88.5C82.5 91 73.4936 98.8373 60.0928 101.5C44.4292 104.612 33.597 101.955 20.5927 92.6852C7.58842 83.4158 1.09272 65.1852 1.09272 65.1852L34.0927 47.1852C34.0927 47.1852 37.934 49.1125 40.5927 49.6852C44.2195 50.4665 46.4384 51.325 50.0928 50.6853C55.8565 49.6763 59.9945 47.8617 64.0928 43.6853C67.0953 40.6256 68.922 37.9687 69.0927 33.6852C69.2914 28.6995 67.0877 24.8515 62.5927 22.6852C59.0747 20.9898 53.5928 21.0035 52.5928 21.1853C45.8006 22.4203 41.1629 25.6092 37.0927 31.1852C34.1803 35.1751 33.0927 43.1852 33.0927 43.1852L0.0927207 57.6852C0.0927207 57.6852 -0.821696 40.8366 3.09272 31.1852C10.4176 13.125 23.2691 3.21932 42.5927 0.685236C57.6715 -1.29218 70.616 0.707141 82.0928 10.6853C88.1056 15.913 91.6221 23.6853 92.0927 27.6852C93.0928 36.1853 91.5144 40.425 87.5927 47.1852Z" fill="url(#paint0_linear_36_200)"/>
<circle cx="107" cy="47" r="8" fill="#11986B"/>
<defs>
<linearGradient id="paint0_linear_36_200" x1="22" y1="7.5" x2="80" y2="95.5" gradientUnits="userSpaceOnUse">
<stop offset="0.54" stop-color="#18C088"/>
<stop offset="1" stop-color="#108F65"/>
</linearGradient>
</defs>
</svg>
